<svg xmlns="http://www.w3.org/2000/svg" xml:space="preserve" style="fill-rule:evenodd;clip-rule:evenodd;stroke-linejoin:round;stroke-miterlimit:2" viewBox="0 0 40 40">
  <path d="M0 0h40v40H0z" style="fill:none"/>
  <path d="M20.41 30.47a5.78 5.78 0 0 0 3.93-1.82 4.87 4.87 0 0 0 1.55-3.77 6.35 6.35 0 0 0-1.52-3.77c-.92.52-1.85.81-2.77.86-2.16.12-3.28-.5-3.35-1.84-.02-.4.23-.77.74-1.12a4.47 4.47 0 0 1 2.27-.6c1-.06 2.1.18 3.3.7a5.84 5.84 0 0 0 1.46-4.16c-.1-1.88-1-3.33-2.7-4.35a9.27 9.27 0 0 0-6.24-1.28v3.92c-.02 2.7.11 6.8.41 12.33.12 2.13.02 3.2-.29 3.22-1.2.06-1.98-.07-2.34-.38-.35-.32-.57-1.28-.66-2.88-.02-.39-.03-2-.03-4.84s-.04-5.13-.14-6.87A31.1 31.1 0 0 1 14 10c-1.45.58-2.2 1.44-2.26 2.56a3.96 3.96 0 0 1-.5 1.97c-.28.38-.66.58-1.15.61-.5.03-.83-.09-1.01-.34a1.52 1.52 0 0 1-.3-.81c-.13-2.44 1.67-4.22 5.4-5.35.38-1.93 1.08-2.93 2.12-2.98.42-.02.67.75.76 2.32.72-.13 1.62-.22 2.7-.27 1.08-.06 2.33.07 3.76.4 1.42.34 2.68.98 3.77 1.95a4.72 4.72 0 0 1 1.74 3.34c.12 2.36-.9 4.53-3.06 6.53 1.63 1.15 2.5 2.58 2.59 4.29a5.93 5.93 0 0 1-1.37 4.33c-1.88 2.16-4.49 3.32-7.82 3.5-2.27.12-3.9.06-4.9-.2a1.4 1.4 0 0 1-.64-.4 1.32 1.32 0 0 1-.36-.9c-.03-.58.53-.9 1.68-.97.36-.02 1.17.13 2.42.46 1.26.33 2.2.47 2.85.44Zm3.03-10.24c-.88-.66-1.69-.97-2.43-.93-.74.04-1.1.22-1.09.53.04.64.74.93 2.11.85.5-.02.98-.18 1.41-.45Z" style="fill:#3f585f;fill-rule:nonzero"/>
  <path d="m11.39 17.68.02 2.99c0 2.93 0 4.6.03 5 .05.91.15 1.67.28 2.28a3.4 3.4 0 0 0-1.02 2.73 4 4 0 0 0 1.15 2.68 4.06 4.06 0 0 0 1.95 1.16c1.17.3 3.07.42 5.71.27 4.18-.22 7.4-1.75 9.76-4.44l.02-.03a8.6 8.6 0 0 0 2.03-6.27 7.7 7.7 0 0 0-1.53-4.28 9.98 9.98 0 0 0 2-6.54 7.39 7.39 0 0 0-2.67-5.27 11.24 11.24 0 0 0-4.98-2.57 16.33 16.33 0 0 0-4.88-.45c-.12-.3-.25-.53-.37-.7a2.99 2.99 0 0 0-2.74-1.37c-1.67.09-3.34 1.1-4.25 3.6-4.31 1.72-6.06 4.47-5.9 7.65.04.79.3 1.55.8 2.26.64.9 1.7 1.6 3.42 1.51.41-.02.8-.09 1.16-.2Zm9.03 12.77a5.77 5.77 0 0 0 3.92-1.81 4.87 4.87 0 0 0 1.55-3.77 6.35 6.35 0 0 0-1.51-3.78c-.93.53-1.85.82-2.78.87-2.15.11-3.27-.5-3.34-1.84-.02-.4.22-.77.74-1.12a4.46 4.46 0 0 1 2.26-.6c1-.06 2.1.18 3.3.7a5.85 5.85 0 0 0 1.47-4.17c-.1-1.88-1-3.32-2.7-4.34a9.26 9.26 0 0 0-6.25-1.29 218.28 218.28 0 0 0 .41 16.25c.12 2.13.02 3.2-.28 3.22-1.2.07-1.99-.06-2.34-.38-.36-.32-.58-1.27-.66-2.87-.03-.4-.04-2-.03-4.85 0-2.84-.05-5.12-.14-6.86-.1-1.74-.1-3.02-.04-3.84-1.46.59-2.21 1.44-2.26 2.57a3.96 3.96 0 0 1-.5 1.97c-.28.38-.67.58-1.16.6-.49.03-.82-.08-1-.34a1.51 1.51 0 0 1-.3-.8c-.13-2.44 1.67-4.23 5.4-5.35.37-1.94 1.08-2.93 2.12-2.99.42-.02.67.75.75 2.32.73-.12 1.63-.21 2.7-.27 1.09-.06 2.34.08 3.76.41 1.42.33 2.68.98 3.77 1.95a4.72 4.72 0 0 1 1.74 3.34c.13 2.35-.89 4.53-3.06 6.53 1.64 1.15 2.5 2.58 2.6 4.29a5.97 5.97 0 0 1-1.38 4.33c-1.88 2.15-4.48 3.32-7.82 3.5-2.27.12-3.9.05-4.9-.2a1.4 1.4 0 0 1-.63-.41 1.32 1.32 0 0 1-.36-.89c-.04-.59.52-.91 1.67-.97.36-.02 1.17.13 2.43.46 1.25.32 2.2.47 2.85.43Zm-.16-2.76a3.1 3.1 0 0 0 2.1-.99c.5-.51.8-1.05.77-1.68l-.06-.48a9.89 9.89 0 0 1-2.84.15l.03.71c.05.9.04 1.65 0 2.29Zm3.19-7.48c-.88-.65-1.7-.96-2.43-.92-.75.04-1.1.21-1.1.52.04.65.75.93 2.12.86.5-.03.97-.18 1.4-.46Zm-3.58-4.44a8.63 8.63 0 0 1 3.34.01c.05-.23.07-.46.05-.7a2.54 2.54 0 0 0-1.35-2.12 6.96 6.96 0 0 0-2.05-.83v1.11c-.01.74 0 1.58.01 2.53Z" style="fill:#fff"/>
</svg>
